<?xml version="1.0" encoding="UTF-8" standalone="no"?>
<!-- Created with Inkscape (http://www.inkscape.org/) -->

<svg
   xmlns:dc="http://purl.org/dc/elements/1.1/"
   xmlns:cc="http://creativecommons.org/ns#"
   xmlns:rdf="http://www.w3.org/1999/02/22-rdf-syntax-ns#"
   xmlns:svg="http://www.w3.org/2000/svg"
   xmlns="http://www.w3.org/2000/svg"
   xmlns:sodipodi="http://sodipodi.sourceforge.net/DTD/sodipodi-0.dtd"
   xmlns:inkscape="http://www.inkscape.org/namespaces/inkscape"
   width="100"
   height="50"
   viewBox="0 0 100 50.000001"
   id="svg2"
   version="1.1"
   inkscape:version="0.91 r13725"
   sodipodi:docname="logo-inkscape.svg">
  <defs
     id="defs4" />
  <sodipodi:namedview
     id="base"
     pagecolor="#ffffff"
     bordercolor="#666666"
     borderopacity="1.0"
     inkscape:pageopacity="0.0"
     inkscape:pageshadow="2"
     inkscape:zoom="3.959798"
     inkscape:cx="61.62582"
     inkscape:cy="38.922813"
     inkscape:document-units="px"
     inkscape:current-layer="layer1"
     showgrid="false"
     showguides="false"
     units="px"
     inkscape:snap-bbox="true"
     inkscape:window-width="1403"
     inkscape:window-height="876"
     inkscape:window-x="37"
     inkscape:window-y="24"
     inkscape:window-maximized="1" />
  <metadata
     id="metadata7">
    <rdf:RDF>
      <cc:Work
         rdf:about="">
        <dc:format>image/svg+xml</dc:format>
        <dc:type
           rdf:resource="http://purl.org/dc/dcmitype/StillImage" />
        <dc:title></dc:title>
      </cc:Work>
    </rdf:RDF>
  </metadata>
  <g
     inkscape:label="Layer 1"
     inkscape:groupmode="layer"
     id="layer1"
     transform="translate(0,-1002.3622)">
    <g
       transform="scale(0.7329454,1.3643581)"
       style="font-style:normal;font-weight:normal;font-size:34.27882767px;line-height:125%;font-family:sans-serif;letter-spacing:0px;word-spacing:0px;fill:#000000;fill-opacity:1;stroke:none;stroke-width:1px;stroke-linecap:butt;stroke-linejoin:miter;stroke-opacity:1"
       id="text4136">
      <path
         d="m 18.363832,750.67093 0,-10.07797 3.256489,0 0,24.54364 -3.256489,0 0,-11.58625 m -12.7517238,0 0,11.58625 -3.2564887,0 0,-24.54364 3.2564887,0 0,10.07797"
         style="font-style:normal;font-variant:normal;font-weight:normal;font-stretch:normal;font-family:Garuda;-inkscape-font-specification:Garuda"
         id="path4141"
         inkscape:connector-curvature="0"
         sodipodi:nodetypes="cccccccccccc" />
      <path
         d="m 29.04865,743.71233 q 3.050816,-3.59928 8.638265,-3.59928 5.587449,0 8.638264,3.59928 3.050816,3.59928 3.050816,9.46096 0,5.34749 -3.22221,8.87821 -3.187931,3.49644 -8.46687,3.49644 -5.27894,0 -8.501149,-3.49644 -3.187931,-3.53072 -3.187931,-8.87821 0,-5.86168 3.050815,-9.46096 z m 2.468076,16.31672 q 2.262403,2.63947 6.170189,2.63947 3.907786,0 6.170189,-2.63947 2.262402,-2.67375 2.262402,-6.85576 0,-1.98818 -0.411345,-3.66784 -0.377068,-1.67966 -1.268317,-3.18793 -0.89125,-1.54255 -2.605191,-2.4338 -1.713941,-0.89125 -4.147738,-0.89125 -2.433797,0 -4.147738,0.89125 -1.713942,0.89125 -2.605191,2.4338 -0.89125,1.50827 -1.302596,3.18793 -0.377067,1.67966 -0.377067,3.66784 0,4.18201 2.262403,6.85576 z"
         style="font-style:normal;font-variant:normal;font-weight:normal;font-stretch:normal;font-family:Garuda;-inkscape-font-specification:Garuda"
         id="path4143" />
      <path
         d="m 59.842821,765.1366 0,-21.66422 -8.089803,0 0,-2.87942 19.504653,0 0,2.87942 -8.158361,0 0,21.66422 -3.256489,0 z"
         style="font-style:normal;font-variant:normal;font-weight:normal;font-stretch:normal;font-family:Garuda;-inkscape-font-specification:Garuda"
         id="path4145" />
      <path
         d="m 97.220137,765.1366 0,-24.54364 3.256493,0 0,21.66422 12.06614,0 0,2.87942 -15.322633,0 z"
         style="font-style:normal;font-variant:normal;font-weight:normal;font-stretch:normal;font-family:Garuda;-inkscape-font-specification:Garuda"
         id="path4149" />
    </g>
    <rect
       y="1025.3981"
       x="54.788158"
       height="3.5714285"
       width="12.808558"
       id="rect4188"
       style="opacity:1;fill:#000000;fill-opacity:1;fill-rule:evenodd;stroke:none;stroke-opacity:1" />
    <rect
       style="opacity:1;fill:#000000;fill-opacity:1;fill-rule:evenodd;stroke:none;stroke-opacity:1"
       id="rect4190"
       width="12.808558"
       height="3.5714285"
       x="54.788158"
       y="1040.3981" />
    <rect
       style="opacity:1;fill:#000000;fill-opacity:1;fill-rule:evenodd;stroke:none;stroke-opacity:1"
       id="rect4192"
       width="12.808558"
       height="3.5714285"
       x="54.788158"
       y="1010.3981" />
    <rect
       style="opacity:1;fill:#000000;fill-opacity:1;fill-rule:evenodd;stroke:none;stroke-opacity:1"
       id="rect4200"
       width="12.808558"
       height="3.5714285"
       x="85.345276"
       y="1025.3981" />
    <rect
       y="1040.3981"
       x="85.345276"
       height="3.5714285"
       width="12.808558"
       id="rect4202"
       style="opacity:1;fill:#000000;fill-opacity:1;fill-rule:evenodd;stroke:none;stroke-opacity:1" />
    <rect
       y="1010.3981"
       x="85.345276"
       height="3.5714285"
       width="12.808558"
       id="rect4204"
       style="opacity:1;fill:#000000;fill-opacity:1;fill-rule:evenodd;stroke:none;stroke-opacity:1" />
    <rect
       style="opacity:1;fill:#000000;fill-opacity:1;fill-rule:evenodd;stroke:none;stroke-opacity:1"
       id="rect4206"
       width="7.7577958"
       height="3.5714285"
       x="4.9118767"
       y="1025.3981" />
  </g>
</svg>
